<svg id="Layer_1" data-name="Layer 1" xmlns="http://www.w3.org/2000/svg" viewBox="0 0 492.8 78.9"><path d="M254.78,467.31q.47,3.94,2,5.61,2.76,3,10.22,3a15.64,15.64,0,0,0,7-1.3,4.15,4.15,0,0,0,2.58-3.89,4.21,4.21,0,0,0-2.08-3.79q-2.08-1.31-15.48-4.47-9.64-2.39-13.59-6t-3.94-10.18a17.64,17.64,0,0,1,6.16-13.47q6.16-5.62,17.35-5.63,10.62,0,17.3,4.23T290,446H275.18a8.7,8.7,0,0,0-1.62-4.51q-2.44-3-8.33-3-4.83,0-6.89,1.5a4.33,4.33,0,0,0-2.06,3.53,3.87,3.87,0,0,0,2.19,3.69q2.19,1.18,15.44,4.1,8.85,2.07,13.26,6.28a14.27,14.27,0,0,1,4.36,10.64A17.19,17.19,0,0,1,285.26,482q-6.27,5.31-19.38,5.32-13.36,0-19.73-5.63a18.31,18.31,0,0,1-6.37-14.36Z" transform="translate(-239.78 -408.4)"/><path d="M354.92,478.46q-7.16,8.84-21.75,8.84t-21.74-8.84q-7.17-8.85-7.17-21.29A32.94,32.94,0,0,1,311.43,436q7.15-9,21.74-9t21.75,9a32.94,32.94,0,0,1,7.17,21.21Q362.09,469.6,354.92,478.46Zm-11.83-8.18q3.48-4.62,3.48-13.11t-3.48-13.09q-3.48-4.59-10-4.59t-10,4.59q-3.5,4.59-3.5,13.09t3.5,13.11q3.51,4.62,10,4.61T343.09,470.28Z" transform="translate(-239.78 -408.4)"/><path d="M411.83,449.09a13.13,13.13,0,0,0-2.13-5.7Q407.19,440,402,440q-7.5,0-10.25,7.42a30.58,30.58,0,0,0-1.46,10.46,28.12,28.12,0,0,0,1.46,10q2.64,7.07,10,7.06,5.21,0,7.38-2.8a13.89,13.89,0,0,0,2.66-7.27h15.1A24.74,24.74,0,0,1,422,477.59q-7,9.71-20.63,9.71t-20.11-8.1q-6.43-8.1-6.44-21,0-14.55,7.12-22.65t19.64-8.1q10.65,0,17.43,4.78t8,16.86Z" transform="translate(-239.78 -408.4)"/><path d="M457.63,422.05h-15V408.4h15Zm-15,6.75h15v56.58h-15Z" transform="translate(-239.78 -408.4)"/><path d="M514.14,430a22.89,22.89,0,0,1,9.78,8.37A27.93,27.93,0,0,1,528.43,450a72.64,72.64,0,0,1,.48,11.23h-41.2c.23,5.68,2.2,9.65,5.91,11.94a15,15,0,0,0,8.16,2.13,12.5,12.5,0,0,0,8.21-2.6,12.36,12.36,0,0,0,3-3.89h15.1q-.6,5-5.48,10.22-7.6,8.26-21.29,8.26a30.85,30.85,0,0,1-19.93-7q-8.62-7-8.63-22.66,0-14.69,7.79-22.54t20.24-7.85A32.13,32.13,0,0,1,514.14,430ZM492,442.72a15.43,15.43,0,0,0-3.94,8.76h25.49c-.27-3.93-1.59-6.9-3.95-8.94a13,13,0,0,0-8.77-3.05Q495.14,439.49,492,442.72Z" transform="translate(-239.78 -408.4)"/><path d="M587.33,432q5.55,4.6,5.56,15.24v38.1H577.73V451a15.82,15.82,0,0,0-1.18-6.85c-1.45-2.9-4.19-4.36-8.25-4.36q-7.47,0-10.25,6.39a22.1,22.1,0,0,0-1.44,8.61v30.63h-14.8V428.9h14.33v8.26a25.07,25.07,0,0,1,5.37-6.28A18.62,18.62,0,0,1,573,427.45Q581.77,427.45,587.33,432Z" transform="translate(-239.78 -408.4)"/><path d="M648.82,430a22.89,22.89,0,0,1,9.78,8.37A27.8,27.8,0,0,1,663.11,450a72.39,72.39,0,0,1,.49,11.23H622.39c.23,5.68,2.2,9.65,5.92,11.94a15,15,0,0,0,8.15,2.13,12.55,12.55,0,0,0,8.22-2.6,12.35,12.35,0,0,0,3-3.89h15.1q-.59,5-5.48,10.22-7.61,8.26-21.28,8.26a30.84,30.84,0,0,1-19.93-7q-8.64-7-8.64-22.66,0-14.69,7.8-22.54t20.23-7.85A32.13,32.13,0,0,1,648.82,430Zm-22.13,12.77a15.43,15.43,0,0,0-3.94,8.76h25.49c-.27-3.93-1.58-6.9-3.94-8.94a13,13,0,0,0-8.78-3.05Q629.84,439.49,626.69,442.72Z" transform="translate(-239.78 -408.4)"/><path d="M670.58,439.86V429.32h7.89V413.54h14.64v15.78h9.18v10.54h-9.18v29.89c0,2.32.29,3.77.88,4.34s2.39.85,5.4.85l1.42,0,1.48-.08V485.9l-7,.25q-10.49.38-14.33-3.63c-1.66-1.69-2.49-4.31-2.49-7.84V439.86Z" transform="translate(-239.78 -408.4)"/><path d="M724.61,469.86h.2a7.75,7.75,0,0,1,7.76,7.76h0a7.76,7.76,0,0,1-7.76,7.76h-.2a7.76,7.76,0,0,1-7.76-7.76h0A7.75,7.75,0,0,1,724.61,469.86Z" transform="translate(-239.78 -408.4)"/></svg>