<?xml version="1.0" encoding="utf-8"?>
<!-- Generator: Adobe Illustrator 24.0.1, SVG Export Plug-In . SVG Version: 6.00 Build 0)  -->
<svg version="1.1" id="Layer_1" xmlns="http://www.w3.org/2000/svg" xmlns:xlink="http://www.w3.org/1999/xlink" x="0px" y="0px"
	 viewBox="0 0 492.8 78.9" style="enable-background:new 0 0 492.8 78.9;" xml:space="preserve">
<style type="text/css">
	.st0{fill:#FFFFFF;}
</style>
<path class="st0" d="M15,58.9c0.3,2.6,1,4.5,2,5.6c1.8,2,5.2,3,10.2,3c2.4,0.1,4.8-0.3,7-1.3c1.6-0.6,2.6-2.2,2.6-3.9
	c0.1-1.6-0.7-3-2.1-3.8c-1.4-0.9-6.5-2.4-15.5-4.5c-6.4-1.6-11-3.6-13.6-6s-3.9-5.8-3.9-10.2c0-5.2,2.2-10.1,6.2-13.5
	c4.1-3.7,9.9-5.6,17.4-5.6c7.1,0,12.8,1.4,17.3,4.2s7,7.7,7.7,14.6H35.4c-0.1-1.6-0.7-3.2-1.6-4.5c-1.6-2-4.4-3-8.3-3
	c-3.2,0-5.5,0.5-6.9,1.5c-1.2,0.8-2,2.1-2.1,3.5c-0.1,1.6,0.8,3,2.2,3.7c1.5,0.8,6.6,2.2,15.4,4.1c5.9,1.4,10.3,3.5,13.3,6.3
	c2.9,2.8,4.5,6.6,4.4,10.6c0.2,5.3-2.2,10.4-6.3,13.8c-4.2,3.5-10.6,5.3-19.4,5.3c-8.9,0-15.5-1.9-19.7-5.6
	C2.2,69.7-0.1,64.4,0,58.9L15,58.9z"/>
<path class="st0" d="M115.1,70.1c-4.8,5.9-12,8.8-21.8,8.8c-9.7,0-17-2.9-21.7-8.8c-4.8-5.9-7.2-13-7.2-21.3
	c-0.2-7.7,2.4-15.2,7.2-21.2c4.8-6,12-9,21.7-9s17,3,21.8,9c4.8,6,7.3,13.5,7.2,21.2C122.3,57.1,119.9,64.2,115.1,70.1z M103.3,61.9
	c2.3-3.1,3.5-7.5,3.5-13.1c0-5.7-1.2-10-3.5-13.1c-2.3-3.1-5.7-4.6-10-4.6s-7.7,1.5-10,4.6c-2.3,3.1-3.5,7.4-3.5,13.1
	c0,5.7,1.2,10,3.5,13.1c2.3,3.1,5.7,4.6,10,4.6C97.6,66.5,101,64.9,103.3,61.9L103.3,61.9z"/>
<path class="st0" d="M172,40.7c-0.3-2-1-4-2.1-5.7c-1.7-2.3-4.2-3.4-7.7-3.4c-5,0-8.4,2.5-10.3,7.4c-1.1,3.4-1.6,6.9-1.5,10.5
	c-0.1,3.4,0.4,6.8,1.5,10c1.8,4.7,5.1,7.1,10,7.1c3.5,0,5.9-0.9,7.4-2.8c1.6-2.1,2.5-4.6,2.7-7.3h15.1c-0.4,4.6-2.1,9-4.9,12.7
	c-4.7,6.5-11.5,9.7-20.6,9.7c-9.1,0-15.8-2.7-20.1-8.1c-4.3-5.4-6.4-12.4-6.4-21c0-9.7,2.4-17.3,7.1-22.6c4.7-5.4,11.3-8.1,19.6-8.1
	c7.1,0,12.9,1.6,17.4,4.8s7.2,8.8,8,16.9L172,40.7z"/>
<path class="st0" d="M217.9,13.6h-15V0h15V13.6z M202.9,20.4h15V77h-15V20.4z"/>
<path class="st0" d="M274.4,21.6c4,1.8,7.4,4.7,9.8,8.4c2.4,3.5,3.9,7.5,4.5,11.6c0.4,3.7,0.6,7.5,0.5,11.2h-41.2
	c0.2,5.7,2.2,9.6,5.9,11.9c2.5,1.5,5.3,2.2,8.2,2.1c3,0.1,5.9-0.8,8.2-2.6c1.3-1.1,2.3-2.4,3-3.9h15.1c-0.4,3.3-2.2,6.7-5.5,10.2
	c-5.1,5.5-12.2,8.3-21.3,8.3c-7.3,0.1-14.3-2.4-19.9-7c-5.7-4.7-8.6-12.2-8.6-22.7c0-9.8,2.6-17.3,7.8-22.5s11.9-7.9,20.2-7.9
	C265.6,18.8,270.2,19.7,274.4,21.6z M252.2,34.3c-2.2,2.4-3.6,5.5-3.9,8.8h25.5c-0.3-3.9-1.6-6.9-4-8.9c-2.4-2.1-5.6-3.1-8.8-3
	C257.3,31.1,254.3,32.2,252.2,34.3z"/>
<path class="st0" d="M347.6,23.6c3.7,3.1,5.6,8.1,5.6,15.2v38.1h-15.2V42.6c0.1-2.3-0.3-4.7-1.2-6.9c-1.5-2.9-4.2-4.4-8.3-4.4
	c-5,0-8.4,2.1-10.3,6.4c-1,2.7-1.5,5.7-1.4,8.6V77H302V20.5h14.3v8.3c1.4-2.4,3.2-4.5,5.4-6.3c3.3-2.4,7.4-3.6,11.5-3.4
	C339.1,19.1,343.8,20.6,347.6,23.6z"/>
<path class="st0" d="M409,21.6c4,1.8,7.4,4.7,9.8,8.4c2.4,3.5,3.9,7.5,4.5,11.6c0.5,3.7,0.6,7.5,0.5,11.2h-41.2
	c0.2,5.7,2.2,9.6,5.9,11.9c2.5,1.5,5.3,2.2,8.2,2.1c3,0.1,5.9-0.8,8.2-2.6c1.3-1.1,2.3-2.4,3-3.9H423c-0.4,3.3-2.2,6.7-5.5,10.2
	c-5.1,5.5-12.2,8.3-21.3,8.3c-7.3,0.1-14.3-2.4-19.9-7c-5.8-4.7-8.6-12.2-8.6-22.7c0-9.8,2.6-17.3,7.8-22.5
	c5.2-5.2,11.9-7.9,20.2-7.9C400.3,18.8,404.8,19.7,409,21.6z M386.9,34.4c-2.2,2.4-3.6,5.5-3.9,8.8h25.5c-0.3-3.9-1.6-6.9-3.9-8.9
	c-2.5-2.1-5.6-3.2-8.8-3C392,31.1,389,32.2,386.9,34.4L386.9,34.4z"/>
<path class="st0" d="M430.8,31.5V20.9h7.9V5.1h14.6v15.8h9.2v10.5h-9.2v29.9c0,2.3,0.3,3.8,0.9,4.3s2.4,0.9,5.4,0.9h1.4l1.5-0.1v11
	l-7,0.3c-7,0.3-11.8-1-14.3-3.6c-1.7-1.7-2.5-4.3-2.5-7.8V31.5H430.8z"/>
<path class="st0" d="M484.8,61.5h0.2c4.3,0,7.8,3.5,7.8,7.7c0,0,0,0,0,0l0,0c0,4.3-3.5,7.8-7.8,7.8l0,0h-0.2c-4.3,0-7.8-3.5-7.8-7.8
	c0,0,0,0,0,0l0,0C477.1,64.9,480.5,61.5,484.8,61.5C484.8,61.5,484.8,61.5,484.8,61.5z"/>
</svg>
